PathFileType	4	(X/Y/Z)	C:\Users\Basilio\Documents\Thesis Gigler\squatting_fais\c3dfiles\073\SLS_back_pre4\markers_experimental.trc
DataRate	CameraRate	NumFrames	NumMarkers	Units	OrigDataRate	OrigDataStartFrame	OrigNumFrames
200.000000	200.000000	4	61	mm	200.000000	1005	1341
Frame#	Time	FHD			LBHD			RBHD			C7			T10			CLAV			LSHO			LUUPA			LMUPA			LDUPA			LLEP			LMEP			LRAD			LUL			LRFIN			RSHO			RUPA1			RMUPA			RDUPA			RLEP			RMEP			RUL			RUFIN			LASI			RASI			USACR			LSACR			RSACR			LTHI1			LTHI2			LTHI3			LTHI4			LLFC			LTIB1			LTIB2			LTIB3			LTIB4			LLMAL			LMMAL			LHEE			LMT1			LMT2			LMT5			RTHI			RTHI2			RTHI3			RTHI4			RLFC			RMFC			RTIB1			RTIB2			RTIB3			RTIB4			RLMAL			RMMAL			RHEE			RMT1			RMT2			RMT5			LMFC			RRAD			
		X1	Y1	Z1	X2	Y2	Z2	X3	Y3	Z3	X4	Y4	Z4	X5	Y5	Z5	X6	Y6	Z6	X7	Y7	Z7	X8	Y8	Z8	X9	Y9	Z9	X10	Y10	Z10	X11	Y11	Z11	X12	Y12	Z12	X13	Y13	Z13	X14	Y14	Z14	X15	Y15	Z15	X16	Y16	Z16	X17	Y17	Z17	X18	Y18	Z18	X19	Y19	Z19	X20	Y20	Z20	X21	Y21	Z21	X22	Y22	Z22	X23	Y23	Z23	X24	Y24	Z24	X25	Y25	Z25	X26	Y26	Z26	X27	Y27	Z27	X28	Y28	Z28	X29	Y29	Z29	X30	Y30	Z30	X31	Y31	Z31	X32	Y32	Z32	X33	Y33	Z33	X34	Y34	Z34	X35	Y35	Z35	X36	Y36	Z36	X37	Y37	Z37	X38	Y38	Z38	X39	Y39	Z39	X40	Y40	Z40	X41	Y41	Z41	X42	Y42	Z42	X43	Y43	Z43	X44	Y44	Z44	X45	Y45	Z45	X46	Y46	Z46	X47	Y47	Z47	X48	Y48	Z48	X49	Y49	Z49	X50	Y50	Z50	X51	Y51	Z51	X52	Y52	Z52	X53	Y53	Z53	X54	Y54	Z54	X55	Y55	Z55	X56	Y56	Z56	X57	Y57	Z57	X58	Y58	Z58	X59	Y59	Z59	X60	Y60	Z60	X61	Y61	Z61	

1006	5.025	-84.85289764404298	1648.251831054688	-709.5256958007814	-218.7871551513672	1609.771240234375	-727.2653198242189	-232.4378662109376	1584.686889648438	-593.5780029296876	-260.6550598144532	1502.828491210938	-660.0037231445314	-393.5995178222657	1202.406372070313	-716.5970458984376	-148.4078674316407	1400.232788085938	-675.7465820312501	-180.5972747802735	1475.589111328125	-802.369812011719	-111.2372741699219	1417.479248046875	-916.3709106445315	-67.42676544189455	1429.768188476563	-893.5263671875002	-51.54680633544923	1389.001708984375	-936.2274169921877	50.12373352050783	1360.681884765625	-953.304870605469	45.62797927856446	1297.489624023438	-919.6301879882815	313.2788391113282	1359.766235351563	-846.940612792969	315.1579589843751	1367.704711914063	-921.2632446289065	396.5444641113282	1364.327514648438	-841.475524902344	-152.7405700683594	1432.6181640625	-529.5758666992189	-68.10099029541017	1308.559326171875	-451.9573669433595	-28.26969909667969	1329.28173828125	-468.9668273925782	-8.156112670898439	1274.3857421875	-456.034637451172	81.24224090576173	1250.2744140625	-466.0092163085939	68.30971527099611	1207.067138671875	-535.6210327148439	339.0507812500001	1287.845336914063	-525.6898193359376	413.7648010253907	1312.75048828125	-606.4301147460939	-273.9440917968751	1003.804992675781	-849.6902465820315	-275.7201843261719	1005.272216796875	-604.9738769531251	-441.9232177734376	1098.669921875	-725.9940795898439	-456.7693481445314	1072.069091796875	-754.0503540039064	-463.7220764160157	1071.575805664063	-697.8698730468751	-303.6163635253907	692.7908935546876	-936.3630981445315	-257.1094055175782	620.9512329101564	-930.4463500976565	-213.7642974853516	628.0176391601564	-907.0690917968752	-280.8198242187501	566.0306396484376	-922.1571044921877	-288.9298706054688	519.8791503906251	-924.5810546875002	-431.2268676757814	405.2322387695314	-859.9222412109377	-491.7341918945314	448.8012695312501	-905.2757568359377	-484.8456420898439	409.9485473632814	-885.6663208007815	-555.6510620117189	388.1687927246095	-843.9775390625002	-687.9779663085939	415.6087341308595	-856.2922363281252	-650.4687500000001	411.9251403808595	-773.3140869140627	-719.6445922851564	471.3324584960939	-809.7125244140627	-690.6338500976564	251.2980346679688	-766.3189697265626	-697.4534301757814	247.2874450683594	-805.182312011719	-734.1310424804689	276.2513122558594	-853.7630004882815	-357.0537109375001	781.0646972656252	-535.6864624023439	-313.7003479003907	731.0285644531251	-533.4942016601564	-280.5456237792969	736.7583618164064	-534.2225952148439	-325.7275390625001	652.4736328125001	-560.6991577148439	-291.4914245605469	508.6091918945314	-580.7354736328126	-265.6991271972657	507.420135498047	-707.7039794921876	-255.3905487060547	351.2472839355469	-679.1265258789064	-301.0510253906251	268.2957763671876	-627.0202636718751	-271.0226135253907	266.5430603027344	-664.9899291992189	-291.6039733886719	229.4169616699219	-704.7756958007814	-360.5834350585938	95.28765106201173	-676.7717895507814	-347.4410095214844	136.2341766357422	-756.0799560546876	-430.3729553222657	85.7726516723633	-738.8571166992189	-206.0682220458985	61.43110656738283	-754.4378662109376	-205.7592010498047	51.45539855957033	-714.1157836914064	-248.8054962158204	31.09485435485841	-667.4388427734376	-278.1829223632813	508.1892395019532	-789.2998657226565	323.1619262695313	1290.288940429688	-599.3757324218751	
1007	5.03	-85.55762481689455	1649.0732421875	-708.9279785156251	-219.8477020263672	1610.626831054688	-726.5728759765626	-233.2636260986329	1585.539794921875	-593.0035400390626	-261.4748229980469	1503.480224609375	-659.3887939453126	-393.504608154297	1202.723876953125	-716.5722656250001	-148.0708770751953	1401.392700195313	-675.1530761718751	-181.2602081298828	1476.51416015625	-801.952819824219	-111.9450225830078	1418.546508789063	-915.9393310546877	-68.27683258056642	1430.923706054688	-893.2109985351565	-52.49268722534181	1390.141723632813	-936.0423583984377	49.54034805297853	1361.499877929688	-952.862976074219	45.03836059570313	1298.901611328125	-919.4585571289065	312.7521972656251	1361.469482421875	-846.949157714844	314.4262390136719	1369.530639648438	-921.3033447265627	396.001678466797	1366.19580078125	-841.4498291015627	-153.2406768798828	1433.260986328125	-529.0258178710939	-68.46739196777345	1309.030517578125	-451.957244873047	-28.64855003356934	1329.850463867188	-468.9223632812501	-8.423221588134767	1275.030639648438	-456.137176513672	81.00980377197267	1250.965698242188	-466.2049255371095	68.01388549804689	1207.940673828125	-536.1433715820314	338.7434997558594	1288.801391601563	-526.1920166015626	413.3576660156251	1313.974609375	-607.0084838867189	-273.3325805664063	1004.544311523438	-849.9497070312502	-275.2566528320313	1005.658508300781	-605.1799316406251	-441.5699768066407	1098.99951171875	-726.1933593750001	-456.2525939941407	1072.3037109375	-754.2959594726564	-463.4773254394532	1071.759155273438	-698.0316162109376	-303.1527404785157	693.4656982421876	-936.979431152344	-256.7734680175782	621.6385498046876	-931.2218017578127	-213.3719635009766	628.5928344726564	-907.9294433593752	-280.3679809570313	566.6880493164064	-923.0132446289065	-288.5862426757813	520.4949340820314	-925.5145263671877	-430.7369384765626	405.389129638672	-860.8081054687502	-491.3281555175782	449.0201416015626	-906.0593261718752	-484.3052368164064	410.2841186523439	-886.3636474609377	-555.0491333007814	388.2866821289064	-844.6171875000002	-687.2860107421876	415.598358154297	-856.9854125976565	-649.8327636718751	411.9003906250001	-773.9498291015627	-719.1170043945314	471.2313232421876	-810.223083496094	-689.7976074218751	251.2472534179688	-767.0848388671876	-696.4535522460939	247.1545562744141	-805.8919677734377	-733.4323120117189	276.2106933593751	-854.3731689453127	-356.9639892578126	781.4229736328127	-536.0698242187501	-313.6813659667969	731.2794189453126	-533.9915771484376	-280.4905700683594	737.0646972656251	-534.6623535156251	-325.8591613769532	652.7968750000001	-560.9895019531251	-291.9714965820313	508.780975341797	-581.0313720703126	-266.0436401367188	507.4243774414064	-707.9689331054689	-255.7791748046876	351.3098144531251	-679.2536010742189	-301.2962036132813	268.4449768066407	-627.1085815429689	-271.2359313964844	266.6281433105469	-665.0415039062501	-291.7522888183594	229.4556732177735	-704.7831420898439	-360.6247558593751	95.31029510498048	-676.8200683593751	-347.4479675292969	136.2191314697266	-756.1279296875001	-430.3906555175782	85.7695770263672	-738.8616943359376	-206.0742492675782	61.44000625610353	-754.4288940429689	-205.7927551269532	51.44721984863283	-714.0728149414064	-248.8093719482422	31.10616302490235	-667.4093627929689	-277.3356018066407	508.6479797363282	-790.336364746094	322.6724548339844	1291.466064453125	-599.8652954101564	
1008	5.035	-86.77001190185548	1649.814208984375	-708.4520263671876	-220.6444854736329	1611.416137695313	-726.0557861328126	-234.0351104736329	1586.338134765625	-592.4904174804689	-262.2059326171876	1504.1728515625	-658.8159179687501	-393.4875793457032	1203.00439453125	-716.5014648437501	-148.8671875	1402.232177734375	-674.7742309570314	-181.984375	1477.565673828125	-801.4639282226565	-112.3990783691407	1419.77978515625	-915.6377563476565	-69.01699829101564	1432.173095703125	-892.855163574219	-52.78579711914064	1391.514892578125	-935.620056152344	48.56577682495119	1363.49169921875	-952.916442871094	44.60981750488282	1300.325073242188	-919.290466308594	312.1166381835938	1363.114624023438	-846.8502197265627	313.6177368164063	1371.302978515625	-921.1585693359377	395.4817199707032	1367.937377929688	-841.4666748046877	-153.8329467773438	1433.952880859375	-528.4523925781251	-68.80516052246095	1309.481567382813	-451.9163513183595	-28.99959182739259	1330.48486328125	-468.7909545898439	-8.701957702636721	1275.557983398438	-456.2465820312501	80.68779754638673	1251.686279296875	-466.5686950683595	67.68419647216798	1208.633911132813	-536.2059936523439	338.3649291992188	1289.83154296875	-526.7189941406251	412.9729919433595	1315.12060546875	-607.6132812500001	-272.6524353027344	1005.329406738281	-850.0916137695315	-274.7032165527344	1006.024291992188	-605.3681640625001	-441.1497802734376	1099.264404296875	-726.3925781250001	-455.6921691894532	1072.583862304688	-754.5639648437501	-463.0593566894532	1071.926513671875	-698.2968139648439	-302.7096557617188	694.0504760742189	-937.672302246094	-256.2375488281251	622.2651977539064	-932.088562011719	-212.8415832519532	629.1605834960939	-908.8298950195315	-280.0216064453126	567.3118286132814	-923.9074707031252	-288.2884521484376	521.1191406250001	-926.528991699219	-430.0069885253907	405.6850585937501	-861.8487548828127	-490.7698059082032	449.2233276367189	-906.926696777344	-483.7528686523439	410.4656372070314	-887.0385742187502	-554.4010009765626	388.4116516113282	-845.3279418945315	-686.6996459960939	415.4840087890626	-857.5305786132815	-649.1585083007814	411.8174133300782	-774.5667724609377	-718.5822753906251	471.0787658691407	-810.850036621094	-688.8629150390626	251.1683349609376	-767.6795043945314	-695.5449829101564	246.9851074218751	-806.4854736328127	-732.5443115234376	276.0932006835938	-854.8481445312502	-356.8336181640626	781.7901000976565	-536.3971557617189	-313.6765441894532	731.5507202148439	-534.5111694335939	-280.5546264648438	737.3587646484376	-534.7979736328126	-325.9293823242188	653.0704956054689	-561.3012084960939	-292.4164428710938	508.9728393554689	-581.3108520507814	-266.2624816894532	507.4812927246095	-708.2355957031251	-256.0147705078126	351.4261474609376	-679.3757324218751	-301.5287475585938	268.5864868164063	-627.1896972656251	-271.3801574707032	266.7478027343751	-665.0860595703126	-291.8841247558594	229.5001525878907	-704.8137817382814	-360.6600952148438	95.29831695556642	-676.8015747070314	-347.4530029296876	136.1932373046875	-756.1248168945314	-430.4132080078126	85.79565429687501	-738.8421630859376	-206.0710449218751	61.44861602783205	-754.4247436523439	-205.7873077392579	51.42799758911134	-714.0547485351564	-248.8164825439454	31.0725383758545	-667.4102172851564	-276.7842102050782	508.9285888671876	-791.2545166015627	322.2054748535157	1292.565063476563	-600.3812866210939	
1009	5.04	-87.89608001708986	1650.696166992188	-708.0965576171876	-221.4294738769532	1612.245239257813	-725.5546264648439	-234.6287689208985	1587.128173828125	-591.9376831054689	-262.9802246093751	1504.838623046875	-658.3032836914064	-393.4502868652345	1203.373657226563	-716.4917602539064	-149.9475555419922	1402.9736328125	-674.4764404296876	-182.8324127197266	1478.532104492188	-800.946472167969	-113.3179168701172	1420.901245117188	-915.2385253906252	-69.7238006591797	1433.27197265625	-892.472595214844	-53.57070922851564	1392.722290039063	-935.3027343750002	47.98275375366212	1364.774291992188	-952.8213500976565	43.91491699218751	1301.731567382813	-919.0986938476565	311.6165466308594	1364.78076171875	-846.7386474609377	313.2111206054688	1372.969970703125	-921.0801391601565	394.9161071777345	1369.621337890625	-841.4360961914065	-154.3858032226563	1434.595092773438	-527.9487915039064	-69.13545989990236	1309.992431640625	-451.8554992675782	-29.34967803955079	1331.097534179688	-468.7192382812501	-8.951317787170412	1276.067016601563	-456.2969055175782	80.44596099853517	1252.46044921875	-466.8789672851564	67.32218170166017	1209.54150390625	-536.6071777343751	338.0812988281251	1290.810302734375	-527.2759399414064	412.4416503906251	1316.321411132813	-608.0830688476564	-272.0682983398438	1005.979553222656	-850.2406005859377	-274.1581420898438	1006.364074707031	-605.5516357421876	-440.8032836914064	1099.525268554688	-726.4781494140626	-455.479217529297	1072.921875	-754.7660522460939	-462.6799926757814	1072.119873046875	-698.5253295898439	-302.2944335937501	694.6848144531251	-938.2973632812502	-255.9681701660157	622.9174194335939	-932.7702636718752	-212.5222320556641	629.7355346679689	-909.6032714843752	-279.6316833496094	567.9094238281251	-924.8572998046877	-288.0978698730469	521.5896606445314	-928.0665283203127	-429.4011230468751	405.9194946289064	-862.6136474609377	-490.2603454589845	449.3127441406251	-907.595153808594	-483.0159606933595	410.6901855468751	-887.9293212890627	-553.7481079101564	388.5198059082032	-846.0410766601565	-686.2189941406251	415.399871826172	-858.1513671875002	-648.5118408203126	411.8381958007814	-775.2574462890627	-718.0551757812501	470.9313964843751	-811.4807128906252	-687.8965454101564	251.087387084961	-768.3204345703127	-694.6569824218751	246.8884735107422	-807.0855102539065	-731.7960205078126	275.9159240722657	-855.4064941406252	-356.6833801269532	782.2031860351565	-536.7738037109376	-313.6581420898438	731.8223876953126	-534.8488159179689	-280.5551147460938	737.5836791992189	-534.9876098632814	-326.0812988281251	653.4420776367189	-561.6865844726564	-292.7854614257813	509.146453857422	-581.6036987304689	-266.4729003906251	507.6008300781251	-708.4910278320314	-256.3750305175782	351.5545349121094	-679.6037597656251	-301.7045898437501	268.7225646972657	-627.3447875976564	-271.5702514648438	266.8876342773438	-665.1459350585939	-291.9498596191407	229.569564819336	-704.8839721679689	-360.6705932617188	95.32354736328126	-676.7832031250001	-347.4144897460938	136.2439422607422	-756.1040649414064	-430.3972167968751	85.79598999023439	-738.8427124023439	-206.0429687500001	61.44801712036134	-754.4096679687501	-205.7951354980469	51.42468643188478	-714.0671997070314	-248.8137207031251	31.09063148498536	-667.4086303710939	-276.2145690917969	509.4079589843751	-792.2295532226565	321.5917663574219	1293.71875	-600.7622680664064	
